# xmcd CD database file
#
# Track frame offsets:
#	150
#	21815
#	44460
#	65565
#	90773
#	114368
#	137060
#	158689
#	177606
#	202393
#	224259
#	245971
#	266258
#	290308
#
# Disc length: 4220 seconds
#
# Revision: 0
# Processed by: cddbd v1.5.1PL0 Copyright (c) Steve Scherf et al.
# Submitted via: CDex 1.50beta8
#
DISCID=cf107a0e
DTITLE=Studio A - Ragnarok Online Piano Arrange
DYEAR=2004
DGENRE=New Age
TTITLE0=You and I
TTITLE1=Tread on the ground
TTITLE2=I miss you
TTITLE3=Theme of Prontera
TTITLE4=Everlasting Wanderers
TTITLE5=Ladyrinth
TTITLE6=Be Nice'n Easy
TTITLE7=You're in ruins
TTITLE8=Streamside
TTITLE9=Ancient groover
TTITLE10=Purity of your smile
TTITLE11=Through the tower
TTITLE12=Plateau
TTITLE13=Theme of Lutie - Show In My He
EXTD=YEAR: 2004
EXTT0=
EXTT1=
EXTT2=
EXTT3=
EXTT4=
EXTT5=
EXTT6=
EXTT7=
EXTT8=
EXTT9=
EXTT10=
EXTT11=
EXTT12=
EXTT13=
PLAYORDER=
